<svg xmlns="http://www.w3.org/2000/svg" viewBox="0 0 32 32">
  <!-- Dark green background - edge to edge -->
  <rect fill="#0A3327" x="0" y="0" width="32" height="32" rx="4"/>
  
  <!-- Filled palette silhouette - saturated gold, scaled up -->
  <path 
    fill="#E0B84A"
    d="M16 3C9.4 3 4 8.4 4 15s5.4 12 12 12c1.3 0 2.4-1.1 2.4-2.4 0-.6-.2-1.1-.6-1.5-.4-.4-.6-.9-.6-1.4 0-1.3 1.1-2.4 2.4-2.4h2.9c4 0 7.3-3.3 7.3-7.3C29.8 7 23.6 3 16 3z"
  />
  
  <!-- 4 paint dots - scaled up -->
  <circle fill="#0A3327" cx="9" cy="15" r="2.5"/>
  <circle fill="#0A3327" cx="12" cy="9" r="2.5"/>
  <circle fill="#0A3327" cx="19" cy="9" r="2.5"/>
  <circle fill="#0A3327" cx="24" cy="14" r="2.5"/>
</svg>


